<svg width="135" height="26" viewBox="0 0 135 26" fill="none" xmlns="http://www.w3.org/2000/svg">
<g clip-path="url(#clip0_1503_583)">
<path d="M22.4523 8.8634C22.2871 8.9804 19.3698 10.4806 19.3698 13.8164C19.3698 17.6748 23.0819 19.0398 23.193 19.0736C23.1759 19.1568 22.6033 20.943 21.2358 22.763C20.0165 24.3646 18.743 25.9636 16.8058 25.9636C14.8685 25.9636 14.3699 24.9366 12.1335 24.9366C9.95411 24.9366 9.17921 25.9974 7.40718 25.9974C5.63516 25.9974 4.39873 24.5154 2.97712 22.6954C1.33044 20.5582 0 17.238 0 14.0868C0 9.0324 3.60103 6.3518 7.14508 6.3518C9.02822 6.3518 10.598 7.4802 11.7803 7.4802C12.9056 7.4802 14.6605 6.2842 16.8029 6.2842C17.6149 6.2842 20.5321 6.3518 22.4523 8.8634ZM15.7858 4.1444C16.6719 3.185 17.2986 1.8538 17.2986 0.5226C17.2986 0.338 17.2815 0.1508 17.2445 0C15.8029 0.0494 14.0879 0.8762 13.0537 1.9708C12.2418 2.8132 11.484 4.1444 11.484 5.4938C11.484 5.6966 11.521 5.8994 11.5381 5.9644C11.6293 5.98 11.7774 5.9982 11.9256 5.9982C13.219 5.9982 14.8457 5.2078 15.7858 4.1444Z" fill="white"/>
</g>
<path d="M47.4581 19.3555H44.5741L42.9943 14.1873H37.5031L35.9982 19.3555H33.1904L38.6321 1.76046H41.9923L47.4581 19.3555ZM42.5181 12.019L41.0894 7.42452C40.9383 6.95516 40.6538 5.84985 40.2373 4.10991H40.1865C40.0189 4.85824 39.7509 5.96355 39.3839 7.42452L37.9793 12.019H42.5181ZM61.4248 12.8559C61.4248 15.0136 60.8623 16.7192 59.7358 17.9713C58.7275 19.0858 57.4741 19.6424 55.9794 19.6424C54.3653 19.6424 53.2046 19.0435 52.4997 17.843V24.5H49.7923V10.8383C49.7923 9.4831 49.758 8.09353 49.6919 6.66826H52.0731L52.2242 8.67924H52.275C53.1779 7.16406 54.5481 6.40647 56.387 6.40647C57.8246 6.40647 59.0247 6.99747 59.9847 8.18079C60.9435 9.36675 61.4248 10.9242 61.4248 12.8559ZM58.6665 12.959C58.6665 11.7241 58.3999 10.7061 57.8639 9.90354C57.2785 9.06927 56.4924 8.65147 55.5069 8.65147C54.839 8.65147 54.2319 8.88417 53.6897 9.34295C53.1461 9.8057 52.7906 10.4099 52.6242 11.1583C52.5499 11.4381 52.5077 11.7261 52.4985 12.0163V14.1331C52.4985 15.0546 52.7702 15.8334 53.3138 16.4706C53.8573 17.1053 54.5634 17.4239 55.432 17.4239C56.4518 17.4239 57.2455 17.0127 57.8131 16.1969C58.3821 15.3785 58.6665 14.2997 58.6665 12.959ZM75.4411 12.8559C75.4411 15.0136 74.8785 16.7192 73.7521 17.9713C72.7425 19.0858 71.4903 19.6424 69.9943 19.6424C68.3803 19.6424 67.2195 19.0435 66.5147 17.843V24.5H63.8072V10.8383C63.8072 9.4831 63.7729 8.09353 63.7069 6.66826H66.088L66.2392 8.67924H66.2899C67.1916 7.16406 68.5619 6.40647 70.402 6.40647C71.8383 6.40647 73.0384 6.99747 74.001 8.18079C74.9585 9.36675 75.4411 10.9242 75.4411 12.8559ZM72.6815 12.959C72.6815 11.7241 72.4136 10.7061 71.8776 9.90354C71.2922 9.06927 70.5087 8.65147 69.5232 8.65147C68.8552 8.65147 68.2482 8.88417 67.7034 9.34295C67.1599 9.8057 66.8055 10.4099 66.6392 11.1583C66.5566 11.5073 66.5122 11.7916 66.5122 12.0163V14.1331C66.5122 15.0546 66.7852 15.8334 67.3262 16.4706C67.8697 17.1039 68.5758 17.4239 69.447 17.4239C70.468 17.4239 71.2617 17.0127 71.8281 16.1969C72.3971 15.3785 72.6815 14.2997 72.6815 12.959ZM91.112 14.42C91.112 15.918 90.6091 17.1357 89.6097 18.0757C88.51 19.1017 86.9746 19.616 85.0062 19.616C83.1877 19.616 81.7298 19.2511 80.63 18.5199L81.2561 16.1705C82.4435 16.903 83.7477 17.2679 85.1675 17.2679C86.1885 17.2679 86.9822 17.0272 87.5486 16.55C88.1163 16.0713 88.4033 15.4314 88.4033 14.6328C88.4033 13.9176 88.1658 13.3186 87.6997 12.8308C87.2311 12.3442 86.4565 11.8907 85.3681 11.4742C82.4092 10.3253 80.9285 8.64486 80.9285 6.43424C80.9285 4.99046 81.4517 3.80846 82.4955 2.88428C83.5394 1.96143 84.9237 1.5 86.6457 1.5C88.1836 1.5 89.4649 1.77897 90.4822 2.33559L89.8027 4.63348C88.8452 4.09404 87.7645 3.82433 86.5555 3.82433C85.6005 3.82433 84.8513 4.06892 84.3154 4.55547C83.8645 4.99046 83.6359 5.52064 83.6359 6.14998C83.6359 6.8441 83.8963 7.42056 84.4144 7.87273C84.864 8.2892 85.6843 8.7427 86.8705 9.22925C88.3258 9.84008 89.3951 10.5514 90.0796 11.3685C90.7692 12.1856 91.112 13.2049 91.112 14.42ZM100.087 8.78368H97.1023V14.9436C97.1023 16.5103 97.6281 17.2917 98.6821 17.2917C99.1659 17.2917 99.5672 17.2494 99.8847 17.1608L99.9597 19.3013C99.4263 19.5089 98.724 19.6134 97.8541 19.6134C96.7848 19.6134 95.9492 19.2736 95.346 18.594C94.7453 17.9144 94.4431 16.776 94.4431 15.1736V8.7784H92.6652V6.66297H94.4431V4.33996L97.1023 3.50437V6.66297H100.087V8.78368ZM113.525 12.9075C113.525 14.8576 112.989 16.4587 111.92 17.7108C110.801 18.9999 109.313 19.6424 107.457 19.6424C105.667 19.6424 104.243 19.025 103.181 17.7914C102.12 16.5552 101.589 14.9978 101.589 13.119C101.589 11.153 102.138 9.5426 103.231 8.29053C104.327 7.03713 105.803 6.41044 107.658 6.41044C109.446 6.41044 110.882 7.0292 111.969 8.26408C113.008 9.46194 113.525 11.0089 113.525 12.9075ZM110.719 12.9722C110.719 11.8101 110.477 10.8132 109.993 9.9789C109.426 8.97143 108.613 8.46769 107.56 8.46769C106.476 8.46769 105.644 8.97143 105.077 9.9789C104.592 10.8132 104.351 11.8273 104.351 13.0251C104.351 14.1886 104.592 15.1881 105.077 16.0198C105.663 17.0272 106.479 17.531 107.537 17.531C108.572 17.531 109.384 17.0167 109.971 15.9947C110.468 15.1405 110.719 14.137 110.719 12.9722ZM122.33 9.14728C122.048 9.09435 121.762 9.06824 121.476 9.06927C120.524 9.06927 119.787 9.44211 119.269 10.1931C118.819 10.8542 118.593 11.6898 118.593 12.6986V19.3555H115.886V10.6638C115.888 9.33193 115.862 8.0002 115.807 6.66958H118.165L118.264 9.09703H118.339C118.626 8.26276 119.076 7.58979 119.693 7.08605C120.258 6.64588 120.944 6.40752 121.65 6.40647C121.9 6.40647 122.126 6.42498 122.327 6.45804L122.33 9.14728ZM134.438 12.4116C134.445 12.8402 134.412 13.2683 134.339 13.6902H126.217C126.247 14.9436 126.641 15.9034 127.395 16.5645C128.08 17.1542 128.965 17.4503 130.052 17.4503C131.255 17.4503 132.352 17.252 133.339 16.8514L133.763 18.8069C132.61 19.3304 131.248 19.5909 129.677 19.5909C127.788 19.5909 126.304 19.0118 125.225 17.8562C124.148 16.6994 123.608 15.1445 123.608 13.197C123.608 11.2852 124.11 9.692 125.114 8.42142C126.166 7.0649 127.587 6.38664 129.375 6.38664C131.131 6.38664 132.461 7.0649 133.364 8.42142C134.079 9.49632 134.438 10.829 134.438 12.4116ZM131.857 11.6805C131.876 10.8436 131.698 10.123 131.331 9.51351C130.862 8.72815 130.141 8.3368 129.174 8.3368C128.289 8.3368 127.568 8.7189 127.019 9.48574C126.569 10.0953 126.301 10.8277 126.218 11.6779L131.857 11.6805Z" fill="white"/>
<defs>
<clipPath id="clip0_1503_583">
<rect width="23.1902" height="26" fill="white"/>
</clipPath>
</defs>
</svg>
