<svg width="22" height="24" viewBox="0 0 22 24" fill="none" xmlns="http://www.w3.org/2000/svg">
<g clip-path="url(#clip0_1503_550)">
<path d="M20.7252 8.1816C20.5727 8.2896 17.8798 9.6744 17.8798 12.7536C17.8798 16.3152 21.3064 17.5752 21.409 17.6064C21.3932 17.6832 20.8646 19.332 19.6023 21.012C18.4768 22.4904 17.3013 23.9664 15.513 23.9664C13.7248 23.9664 13.2646 23.0184 11.2002 23.0184C9.18841 23.0184 8.47312 23.9976 6.8374 23.9976C5.20168 23.9976 4.06036 22.6296 2.74811 20.9496C1.2281 18.9768 0 15.912 0 13.0032C0 8.3376 3.32403 5.8632 6.59546 5.8632C8.33374 5.8632 9.78274 6.9048 10.8741 6.9048C11.9129 6.9048 13.5328 5.8008 15.5104 5.8008C16.2599 5.8008 18.9527 5.8632 20.7252 8.1816V8.1816ZM14.5716 3.8256C15.3894 2.94 15.968 1.7112 15.968 0.4824C15.968 0.312 15.9522 0.1392 15.918 0C14.5873 0.0456 13.0042 0.8088 12.0496 1.8192C11.3001 2.5968 10.6006 3.8256 10.6006 5.0712C10.6006 5.2584 10.6348 5.4456 10.6506 5.5056C10.7347 5.52 10.8715 5.5368 11.0082 5.5368C12.2021 5.5368 13.7037 4.8072 14.5716 3.8256Z" fill="#5A8835"/>
</g>
<defs>
<clipPath id="clip0_1503_550">
<rect width="21.4063" height="24" fill="white"/>
</clipPath>
</defs>
</svg>
