<svg width="17" height="24" viewBox="0 0 17 24" fill="none" xmlns="http://www.w3.org/2000/svg">
<path d="M0.846164 0.0161278C1.1925 -0.0417242 1.5437 0.0571147 1.83964 0.295723L11.9296 7.67505L9.37607 11.0002L0.846164 0.0161278ZM0.0700128 1.01468C0.0213532 1.23208 -0.00218348 1.45751 0.000159109 1.68372V22.3139C-0.00218348 22.5401 0.0213532 22.7655 0.0700128 22.9829L8.60768 11.9988L0.0700128 1.01468ZM9.38383 12.9974L0.846164 23.9815C1.19267 24.0446 1.54526 23.9453 1.83964 23.7019L11.9296 16.3225L9.38383 12.9974ZM15.9966 10.6607L12.9386 8.42397L10.1445 11.9988L12.9308 15.5836L15.9889 13.3469C16.9979 12.6079 16.9979 11.3897 15.9889 10.6507L15.9966 10.6607Z" fill="#5A8835"/>
</svg>
