<svg width="139" height="31" viewBox="0 0 139 31" fill="none" xmlns="http://www.w3.org/2000/svg">
<path d="M1.20816 0.0203089C1.70266 -0.0525411 2.20411 0.0719216 2.62664 0.372389L17.0331 9.66479L13.3872 13.852L1.20816 0.0203089ZM0.0999646 1.27774C0.0304881 1.55149 -0.00311758 1.83536 0.000227176 2.12022V28.0987C-0.00311758 28.3836 0.0304881 28.6674 0.0999646 28.9412L12.2901 15.1095L0.0999646 1.27774ZM13.3983 16.3669L1.20816 30.1986C1.7029 30.2781 2.20632 30.1531 2.62664 29.8465L17.0331 20.5541L13.3983 16.3669ZM22.8401 13.4245L18.4738 10.6079L14.4843 15.1095L18.4627 19.6236L22.829 16.807C24.2696 15.8765 24.2696 14.3424 22.829 13.4119L22.8401 13.4245Z" fill="white"/>
<path fill-rule="evenodd" clip-rule="evenodd" d="M33.9131 12.8671C33.9131 8.5918 37.6944 5.11084 42.1932 5.11084C44.6803 5.11084 46.45 6.03899 47.7853 7.2477L46.2131 8.74187C45.2587 7.89039 43.9646 7.22975 42.1915 7.22975C38.9062 7.22975 36.3384 9.74341 36.3384 12.8655C36.3384 15.9876 38.9062 18.5045 42.1898 18.5045C44.3199 18.5045 45.5317 17.6922 46.3092 16.9516C46.946 16.3465 47.3631 15.477 47.5244 14.2846H42.1932V12.1706H49.6975C49.7764 12.5491 49.8176 13.0025 49.8176 13.4935C49.8176 15.0807 49.3593 17.0495 47.8849 18.4507C46.45 19.8698 44.6202 20.6267 42.1915 20.6267C37.691 20.6267 33.9097 17.149 33.9097 12.8704L33.9131 12.8671ZM55.8835 10.6357C52.9776 10.6357 50.6054 12.7366 50.6054 15.6287C50.6054 18.5062 52.9758 20.6218 55.8835 20.6218C58.7911 20.6218 61.1581 18.5029 61.1581 15.6271C61.1581 12.735 58.7894 10.634 55.8835 10.6357ZM55.8835 18.6579C54.2924 18.6579 52.9175 17.41 52.9175 15.6304C52.9175 13.8328 54.2906 12.6029 55.8835 12.6029C57.4746 12.6029 58.8478 13.8312 58.8478 15.6304C58.8478 17.4084 57.4763 18.6579 55.8835 18.6579ZM67.3922 10.6357C64.4863 10.6357 62.1176 12.7366 62.1176 15.6287C62.1176 18.5062 64.4863 20.6218 67.3922 20.6218C70.2981 20.6218 72.6668 18.5029 72.6668 15.6271C72.6668 12.735 70.2998 10.634 67.3922 10.6357ZM67.3922 18.6579C65.8011 18.6579 64.4262 17.41 64.4262 15.6304C64.4262 13.8328 65.7994 12.6029 67.3922 12.6029C68.9833 12.6029 70.3582 13.8312 70.3582 15.6304C70.3582 17.4084 68.9833 18.6579 67.3922 18.6579ZM81.5168 10.9391V11.7514H81.4378C80.9212 11.1625 79.9256 10.634 78.6726 10.634C76.0448 10.634 73.6332 12.8296 73.6332 15.6499C73.6332 18.4474 76.043 20.6251 78.6726 20.6251C79.9256 20.6251 80.9212 20.0966 81.4378 19.4914H81.5168V20.2091C81.5168 22.1192 80.4423 23.142 78.7104 23.142C77.296 23.142 76.4207 22.1763 76.0619 21.3656L74.0503 22.16C74.627 23.4829 76.1615 25.1108 78.7087 25.1108C81.4138 25.1108 83.7035 23.5955 83.7035 19.9073V10.9374L81.5168 10.9391ZM78.87 18.6579C77.2789 18.6579 75.9418 17.3888 75.9418 15.6499C75.9418 13.8915 77.2772 12.6045 78.87 12.6045C80.4423 12.6045 81.6764 13.8899 81.6764 15.6499C81.6781 17.3888 80.444 18.6579 78.87 18.6579ZM85.2981 5.64098H87.6084V20.3217H85.2981V5.64098ZM93.9403 18.6579C92.7663 18.6579 91.9287 18.1457 91.3949 17.1457L98.422 14.3809L98.1799 13.8132C97.744 12.6991 96.4086 10.6357 93.6812 10.6357C90.9743 10.6357 88.7241 12.66 88.7241 15.6304C88.7241 18.4279 90.9537 20.6234 93.9403 20.6234C96.3502 20.6234 97.744 19.2255 98.3207 18.4099L96.5287 17.2762C95.9297 18.1098 95.1127 18.6595 93.9403 18.6579ZM93.7601 12.5654C94.675 12.5654 95.4508 13.0009 95.71 13.624L91.0104 15.4787C90.952 13.549 92.5844 12.5654 93.7601 12.5654Z" fill="white"/>
<path fill-rule="evenodd" clip-rule="evenodd" d="M108.559 5.64062H103.036V20.3213H105.341V14.7606H108.561C111.117 14.7606 113.629 13.0022 113.629 10.1998C113.629 7.40231 111.118 5.64226 108.564 5.64226L108.559 5.64062ZM108.619 12.7167H105.341V7.68287H108.619C110.343 7.68287 111.324 9.04165 111.324 10.1998C111.324 11.3384 110.343 12.7167 108.619 12.7167ZM117.205 20.3213V5.64062H114.9V20.3213H117.205ZM127.56 20.2952V14.6676C127.56 12.061 125.511 10.6076 122.866 10.6076C121.199 10.6076 119.471 11.3074 118.755 12.8554L120.801 13.6661C121.238 12.8554 122.052 12.5895 122.909 12.5895C124.1 12.5895 125.312 13.2697 125.33 14.48V14.6317C124.913 14.405 124.021 14.0641 122.926 14.0641C120.72 14.0641 118.475 15.2157 118.475 17.3689C118.475 19.3345 120.284 20.5986 122.311 20.5986C123.863 20.5986 124.716 19.938 125.251 19.1648H125.33V20.2985H127.558L127.56 20.2952ZM122.591 18.6542C121.836 18.6542 120.782 18.2954 120.782 17.4096C120.782 16.276 122.095 15.8388 123.228 15.8388C124.242 15.8388 124.718 16.046 125.336 16.3298C125.159 17.6478 123.986 18.6379 122.591 18.6542ZM135.667 10.9289L133.024 17.2922H132.945L130.202 10.9289H127.718L131.831 19.8254L129.484 24.7728H131.889L138.228 10.9289H135.667Z" fill="white"/>
</svg>
