<svg width="34" height="34" viewBox="0 0 34 34" fill="none" xmlns="http://www.w3.org/2000/svg">
<path d="M28.9443 6.40271C28.235 5.69299 27.3927 5.13 26.4657 4.74588C25.5386 4.36177 24.545 4.16406 23.5416 4.16406C22.5381 4.16406 21.5445 4.36177 20.6175 4.74588C19.6904 5.13 18.8482 5.69299 18.1388 6.40271L16.6666 7.87493L15.1943 6.40271C13.7614 4.9698 11.818 4.16481 9.79156 4.16481C7.76513 4.16481 5.82169 4.9698 4.38878 6.40271C2.95588 7.83562 2.15088 9.77905 2.15088 11.8055C2.15088 13.8319 2.95588 15.7754 4.38878 17.2083L5.86101 18.6805L16.6666 29.486L27.4721 18.6805L28.9443 17.2083C29.6541 16.4989 30.2171 15.6566 30.6012 14.7296C30.9853 13.8026 31.183 12.8089 31.183 11.8055C31.183 10.802 30.9853 9.80841 30.6012 8.88138C30.2171 7.95436 29.6541 7.11209 28.9443 6.40271Z" fill="#5A8835"/>
</svg>
