<svg width="64" height="40" viewBox="0 0 64 40" fill="none" xmlns="http://www.w3.org/2000/svg">
<g clip-path="url(#clip0_1055_551)">
<path d="M4.61625 10.8763C4.24217 11.1846 3.77126 11.3776 3.2526 11.3776H1.50824C0.675192 11.3776 0 12.0598 0 12.9015C0 13.7432 0.675192 14.4255 1.50824 14.4255H3.2526C4.31248 14.4255 5.29807 14.1011 6.11918 13.5476C5.19858 12.7313 4.79134 11.6363 4.61492 10.875L4.61625 10.8763Z" fill="#5A8835"/>
<path d="M19.7016 11.3789H17.9572C16.778 11.3789 15.8176 10.4219 15.791 9.23705C15.791 9.22097 15.791 9.20488 15.791 9.1888V6.31787C15.791 5.47616 15.1159 4.79395 14.2828 4.79395C13.4498 4.79395 12.7746 5.47616 12.7746 6.31787V9.11642C12.7746 9.14055 12.7706 9.16467 12.7706 9.1888C12.7706 9.20488 12.7706 9.22097 12.7706 9.23705C12.7454 10.4232 11.7837 11.3789 10.6044 11.3789C9.42514 11.3789 8.43689 10.3964 8.43689 9.1888V6.31787C8.43689 5.47616 7.7617 4.79395 6.92865 4.79395C6.0956 4.79395 5.42041 5.47616 5.42041 6.31787V9.1888C5.42041 12.0772 7.7471 14.428 10.6057 14.428C12.041 14.428 13.341 13.8356 14.2802 12.8813C15.2193 13.8356 16.5206 14.428 17.9546 14.428H19.6989C20.532 14.428 21.2072 13.7458 21.2072 12.9041C21.2072 12.0624 20.532 11.3802 19.6989 11.3802L19.7016 11.3789Z" fill="#7DB74B"/>
<path d="M14.9717 3.28464C15.8575 3.07454 16.407 2.17866 16.1991 1.28362C15.9912 0.388582 15.1045 -0.166674 14.2187 0.0434196C13.3328 0.253513 12.7833 1.1494 12.9912 2.04444C13.1992 2.93947 14.0858 3.49473 14.9717 3.28464Z" fill="#7DB74B"/>
<path d="M7.30711 3.28561C8.19293 3.07552 8.74247 2.17963 8.53454 1.2846C8.32661 0.389558 7.43995 -0.165698 6.55412 0.0443961C5.6683 0.25449 5.11876 1.15038 5.32669 2.04541C5.53462 2.94045 6.42128 3.49571 7.30711 3.28561Z" fill="#7DB74B"/>
<path d="M23.6767 18.0093H1.6129C0.936381 18.0093 0.387207 18.5642 0.387207 19.2477C0.387207 19.9313 0.936381 20.4862 1.6129 20.4862H22.5571L22.5598 20.6939C22.573 20.8882 22.8277 25.4989 18.9636 27.8096C17.7273 28.5481 16.5096 28.977 15.1977 29.1271C14.5782 29.1981 14.102 29.7128 14.102 30.3427V30.3749C14.102 31.1054 14.7321 31.671 15.451 31.5892C17.1118 31.4002 18.6811 30.8561 20.2119 29.9407C25.2075 26.9531 25.0443 21.2233 25.0085 20.5693V19.3536C25.0085 18.6111 24.4129 18.0093 23.678 18.0093H23.6767Z" fill="#1F1514"/>
<path d="M44.6819 38.776C44.6819 39.5064 45.3134 40.0734 46.0323 39.9916C47.6958 39.8026 49.2637 39.2585 50.7932 38.3417C55.6057 35.4587 55.5964 29.4501 55.5898 28.9958V27.7546C55.5898 27.0121 54.9942 26.4103 54.2593 26.4103H44.0359L45.5216 22.8826H58.0969C58.7734 22.8826 59.3226 22.3278 59.3226 21.6442C59.3226 20.9606 58.7734 20.4058 58.0969 20.4058H28.3712C27.6947 20.4058 27.1455 20.9606 27.1455 21.6442C27.1455 22.3278 27.6947 22.8826 28.3712 22.8826H42.6325L41.1468 26.4103H33.0723C32.3958 26.4103 31.8467 26.9652 31.8467 27.6488C31.8467 28.3323 32.3958 28.8872 33.0723 28.8872H53.1384V29.04C53.1397 29.0896 53.2193 34.0112 49.5436 36.212C48.3099 36.9505 47.0922 37.3794 45.779 37.5295C45.1581 37.6005 44.6819 38.1152 44.6819 38.7465V38.7773V38.776Z" fill="#1F1514"/>
<path d="M53.477 10.1795C54.1535 10.1795 54.7027 9.62458 54.7027 8.94103C54.7027 8.25747 54.1535 7.70259 53.477 7.70259H25.4148V1.43131C25.4148 0.747756 24.8656 0.192871 24.1891 0.192871C23.5126 0.192871 22.9634 0.747756 22.9634 1.43131V13.734C22.9634 14.4175 23.5126 14.9724 24.1891 14.9724C24.8656 14.9724 25.4148 14.4175 25.4148 13.734V10.2344H31.3031C31.1585 10.6405 31.075 11.0761 31.075 11.5318V14.0797C31.075 16.1947 32.7716 17.909 34.8648 17.909H53.477C54.1535 17.909 54.7027 17.3541 54.7027 16.6706C54.7027 15.987 54.1535 15.4321 53.477 15.4321H34.8648C34.1259 15.4321 33.5277 14.8263 33.5277 14.0811V11.5332C33.5277 11.4889 33.5303 11.4461 33.5343 11.4018C33.6006 10.6982 34.2254 10.1808 34.9258 10.1808H53.4784L53.477 10.1795Z" fill="#1F1514"/>
<path d="M63.9776 22.1379C64.1222 21.234 63.5141 20.3828 62.6195 20.2367C61.7249 20.0906 60.8824 20.705 60.7379 21.6089C60.5933 22.5128 61.2013 23.364 62.0959 23.5101C62.9906 23.6562 63.833 23.0418 63.9776 22.1379Z" fill="#1F1514"/>
<path d="M33.8631 5.0744V4.56107H35.1259C35.2307 4.56107 35.2665 4.52488 35.2665 4.419V4.22733C35.2665 4.13485 35.252 4.04237 35.1432 3.98608L34.1788 3.52233C33.9162 3.38696 33.8286 3.25695 33.8286 2.95538V2.66052C33.8286 2.30668 34.0037 2.12842 34.3552 2.12842H35.7587V2.64309H34.5489C34.4441 2.64309 34.4083 2.67794 34.4083 2.78517V2.8629C34.4083 2.95807 34.4229 3.03982 34.5317 3.09344L35.496 3.55718C35.7587 3.69121 35.8462 3.82256 35.8462 4.12413V4.58787C35.8462 4.93233 35.7056 5.07306 35.366 5.07306H33.8644L33.8631 5.0744Z" fill="#7DB74B"/>
<path d="M36.8279 5.0744V4.56107H38.0908C38.1956 4.56107 38.2314 4.52488 38.2314 4.419V4.22733C38.2314 4.13485 38.2168 4.04237 38.108 3.98608L37.1437 3.52233C36.881 3.38696 36.7935 3.25695 36.7935 2.95538V2.66052C36.7935 2.30668 36.9686 2.12842 37.3201 2.12842H38.7235V2.64309H37.5137C37.409 2.64309 37.3731 2.67794 37.3731 2.78517V2.8629C37.3731 2.95807 37.3877 3.03982 37.4965 3.09344L38.4609 3.55718C38.7235 3.69121 38.8111 3.82256 38.8111 4.12413V4.58787C38.8111 4.93233 38.6705 5.07306 38.3309 5.07306H36.8293L36.8279 5.0744Z" fill="#7DB74B"/>
<path d="M40.2382 2.55476C40.3085 2.24917 40.4239 2.12988 40.729 2.12988H41.0593C41.3644 2.12988 41.4838 2.25051 41.5501 2.55476L42.1006 5.07453H41.5076L41.375 4.44325H40.3854L40.2448 5.07453H39.6519L40.2382 2.55476ZM40.5008 3.93661H41.2689L41.0341 2.80942C41.0102 2.69549 40.9744 2.64322 40.8935 2.64322C40.8125 2.64322 40.7781 2.69683 40.7529 2.80942L40.5008 3.93661Z" fill="#7DB74B"/>
<path d="M44.5745 5.0744L43.76 3.90432L43.5915 4.12413V5.0744H43.0132V2.12842H43.5915V3.34139L44.5453 2.12842H45.194L44.142 3.49017L45.2218 5.0744H44.5732H44.5745Z" fill="#7DB74B"/>
<path d="M46.083 5.0744V2.12842H47.4613C47.9176 2.12842 48.2333 2.44741 48.2333 2.90847V4.29435C48.2333 4.75541 47.9176 5.0744 47.4613 5.0744H46.083ZM47.6549 2.9259C47.6549 2.74898 47.5501 2.64309 47.3737 2.64309H46.6614V4.56107H47.3737C47.5488 4.56107 47.6549 4.45518 47.6549 4.27692V2.9259Z" fill="#7DB74B"/>
<path d="M50.0225 5.0744C49.5662 5.0744 49.2505 4.75541 49.2505 4.29435V2.12842H49.8302V4.27692C49.8302 4.45384 49.935 4.56107 50.1101 4.56107H50.5664C50.7415 4.56107 50.8476 4.45518 50.8476 4.27692V2.12842H51.426V4.29435C51.426 4.75541 51.1102 5.0744 50.6539 5.0744H50.0225Z" fill="#7DB74B"/>
<path d="M54.0408 5.0744L53.2263 3.90432L53.0579 4.12413V5.0744H52.4795V2.12842H53.0579V3.34139L54.0116 2.12842H54.6603L53.6084 3.49017L54.6881 5.0744H54.0395H54.0408Z" fill="#7DB74B"/>
<path d="M31.6756 1.46191H30.564V5.7482H31.6756V1.46191Z" fill="#7DB74B"/>
</g>
<defs>
<clipPath id="clip0_1055_551">
<rect width="64" height="40" fill="white"/>
</clipPath>
</defs>
</svg>
