<svg width="33" height="33" viewBox="0 0 33 33" fill="none" xmlns="http://www.w3.org/2000/svg">
<path d="M23.375 28.875V26.125C23.375 24.6663 22.7955 23.2674 21.7641 22.2359C20.7326 21.2045 19.3337 20.625 17.875 20.625H6.875C5.41631 20.625 4.01736 21.2045 2.98591 22.2359C1.95446 23.2674 1.375 24.6663 1.375 26.125V28.875" stroke="#5A8835" stroke-width="2" stroke-linecap="round" stroke-linejoin="round"/>
<path d="M12.375 15.125C15.4126 15.125 17.875 12.6626 17.875 9.625C17.875 6.58743 15.4126 4.125 12.375 4.125C9.33743 4.125 6.875 6.58743 6.875 9.625C6.875 12.6626 9.33743 15.125 12.375 15.125Z" stroke="#5A8835" stroke-width="2" stroke-linecap="round" stroke-linejoin="round"/>
<path d="M31.625 28.875V26.125C31.6241 24.9063 31.2185 23.7225 30.4719 22.7594C29.7253 21.7963 28.6799 21.1084 27.5 20.8037" stroke="#5A8835" stroke-width="2" stroke-linecap="round" stroke-linejoin="round"/>
<path d="M22 4.30371C23.1831 4.60662 24.2317 5.29467 24.9805 6.25939C25.7293 7.2241 26.1358 8.4106 26.1358 9.63184C26.1358 10.8531 25.7293 12.0396 24.9805 13.0043C24.2317 13.969 23.1831 14.657 22 14.96" stroke="#5A8835" stroke-width="2" stroke-linecap="round" stroke-linejoin="round"/>
</svg>
