<svg width="34" height="34" viewBox="0 0 34 34" fill="none" xmlns="http://www.w3.org/2000/svg">
<g clip-path="url(#clip0_1265_530)">
<path d="M28.218 20.6835C26.0421 18.5076 23.3602 17.0223 20.4379 16.335L18.5344 18.2385L19.3686 28.3386C19.3968 28.6813 19.3035 29.0229 19.1049 29.3035L17.2016 31.993C17.0787 32.1665 16.8794 32.2697 16.6668 32.2697C16.4542 32.2697 16.2549 32.1665 16.132 31.993L14.2287 29.3035C14.0301 29.0229 13.9368 28.6812 13.965 28.3386L14.7992 18.2385L12.8957 16.335C9.97344 17.0223 7.29147 18.5076 5.11563 20.6835C2.03027 23.7689 0.331055 27.8712 0.331055 32.2346C0.331055 32.8415 0.823047 33.3335 1.42988 33.3335H31.9038C32.5107 33.3335 33.0027 32.8415 33.0027 32.2346C33.0027 27.8712 31.3034 23.7689 28.218 20.6835Z" fill="#5A8835"/>
<path d="M16.667 14.5234C20.6775 14.5234 23.9287 11.2723 23.9287 7.26172C23.9287 3.25118 20.6775 0 16.667 0C12.6565 0 9.40527 3.25118 9.40527 7.26172C9.40527 11.2723 12.6565 14.5234 16.667 14.5234Z" fill="#5A8835"/>
</g>
<defs>
<clipPath id="clip0_1265_530">
<rect width="33.3333" height="33.3333" fill="white"/>
</clipPath>
</defs>
</svg>
